<svg version="1.0" xmlns="http://www.w3.org/2000/svg" viewBox="352.65 349.25 320.27 324.75"><path d="M420.7 349.6c-.4.4-.7 16.5-.7 35.7.1 19.2-.1 35.1-.4 35.4-.2.2-15.3.4-33.5.3l-33-.1-.3 24.9c-.2 13.7-.2 25.6 0 26.5.3 1.5 3.7 1.7 33.8 1.9l33.4.3.3 74.5c.4 82.5.2 80 7.5 95.9 2.7 5.8 11.7 15.8 16.7 18.5 1.7.9 4.4 2.5 6 3.6 1.7 1 3.8 1.9 4.8 1.9.9.1 2.5.5 3.5 1 5 2.8 17 4.1 37.1 4.1 11.3 0 21.1-.4 21.6-.8.6-.4.8-9.4.5-25.2l-.5-24.5-10.5-.6c-14.4-.8-18.8-2.4-25.2-9.2-2.1-2.2-3.8-4.8-3.8-5.8s-.4-2.1-1-2.4c-.7-.4-1-23.5-1-66.1V474l5.3-.1H517l30.5.1.6 71.3c.6 68.3 1 79 3 81.1.5.6.9 1.7.9 2.6 0 4.2 15.1 27.9 17.8 28 .4 0 2.4 1.5 4.4 3.3 4.3 3.7 12.4 8 18.3 9.5 14.5 3.9 18 4.3 38.5 4l20.5-.3.3-25.3.2-25.2h-11.9c-15.2 0-23.2-2.2-29.8-8.3-7.8-7.2-7.3-2.1-7.3-74.6 0-41.2.4-65.2 1-65.6.5-.3 15.6-.6 33.6-.5 23 0 33.1-.3 34-1.1 1.1-.9 1.4-5.5 1.3-22.3 0-11.6-.3-22.9-.7-25.1l-.7-4-33.2-.5-33.2-.5-.6-34c-.3-18.7-.9-34.3-1.3-34.7-.5-.5-13-.7-27.8-.6l-26.9.3-.5 34.8-.5 34.7-35.5.1-35.5.1-.5-35.1-.5-35-21.5-.5c-11.8-.2-24-.7-27-1.1s-5.8-.3-6.3.1"></path></svg>